<svg width="19" height="22" viewBox="0 0 19 22" fill="none" xmlns="http://www.w3.org/2000/svg">
<path fill-rule="evenodd" clip-rule="evenodd" d="M2.83333 8.33334C2.61231 8.33334 2.40035 8.42114 2.24407 8.57742C2.08779 8.7337 1.99999 8.94566 1.99999 9.16667V19.1667C1.99999 19.3877 2.08779 19.5996 2.24407 19.7559C2.40035 19.9122 2.61231 20 2.83333 20H16.1667C16.3877 20 16.5996 19.9122 16.7559 19.7559C16.9122 19.5996 17 19.3877 17 19.1667V9.16667C17 8.94566 16.9122 8.7337 16.7559 8.57742C16.5996 8.42114 16.3877 8.33334 16.1667 8.33334H14.0833C13.8623 8.33334 13.6504 8.24554 13.4941 8.08926C13.3378 7.93298 13.25 7.72102 13.25 7.50001C13.25 7.27899 13.3378 7.06703 13.4941 6.91075C13.6504 6.75447 13.8623 6.66667 14.0833 6.66667H16.1667C16.8297 6.66667 17.4656 6.93007 17.9344 7.39891C18.4033 7.86775 18.6667 8.50363 18.6667 9.16667V19.1667C18.6667 19.8297 18.4033 20.4656 17.9344 20.9344C17.4656 21.4033 16.8297 21.6667 16.1667 21.6667H2.83333C2.17029 21.6667 1.5344 21.4033 1.06556 20.9344C0.59672 20.4656 0.333328 19.8297 0.333328 19.1667V9.16667C0.333328 8.50363 0.59672 7.86775 1.06556 7.39891C1.5344 6.93007 2.17029 6.66667 2.83333 6.66667H4.91666C5.13767 6.66667 5.34964 6.75447 5.50592 6.91075C5.6622 7.06703 5.74999 7.27899 5.74999 7.50001C5.74999 7.72102 5.6622 7.93298 5.50592 8.08926C5.34964 8.24554 5.13767 8.33334 4.91666 8.33334H2.83333ZM8.66666 2.72667L6.27999 5.11334C6.13782 5.24582 5.94977 5.31794 5.75547 5.31452C5.56117 5.31109 5.37579 5.23237 5.23837 5.09496C5.10096 4.95755 5.02225 4.77216 5.01882 4.57786C5.01539 4.38356 5.08751 4.19551 5.21999 4.05334L8.96999 0.30334C9.11062 0.162889 9.30124 0.0839996 9.49999 0.0839996C9.69874 0.0839996 9.88937 0.162889 10.03 0.30334L13.78 4.05334C13.9125 4.19551 13.9846 4.38356 13.9812 4.57786C13.9777 4.77216 13.899 4.95755 13.7616 5.09496C13.6242 5.23237 13.4388 5.31109 13.2445 5.31452C13.0502 5.31794 12.8622 5.24582 12.72 5.11334L10.3333 2.72667V14.1667C10.3333 14.3877 10.2455 14.5996 10.0892 14.7559C9.93297 14.9122 9.72101 15 9.49999 15C9.27898 15 9.06702 14.9122 8.91074 14.7559C8.75446 14.5996 8.66666 14.3877 8.66666 14.1667V2.72667Z" fill="#E69A15"/>
</svg>
