<svg width="64" height="75" viewBox="0 0 64 75" fill="none" xmlns="http://www.w3.org/2000/svg">
<path d="M44 7L38 7" stroke="white" stroke-width="2" stroke-linecap="round" stroke-linejoin="round"/>
<path d="M44 1L34 1" stroke="white" stroke-width="2" stroke-linecap="round" stroke-linejoin="round"/>
<path d="M44 13L35 13" stroke="white" stroke-width="2" stroke-linecap="round" stroke-linejoin="round"/>
<path d="M44 19L38 19" stroke="white" stroke-width="2" stroke-linecap="round" stroke-linejoin="round"/>
<path d="M26 21V2" stroke="white" stroke-width="2" stroke-linecap="round" stroke-linejoin="round"/>
<path d="M20 8L26 2L32 8" stroke="white" stroke-width="2" stroke-linecap="round" stroke-linejoin="round"/>
<path d="M19.56 44.66V53H18.192V49.352H14.268V53H12.9V44.66H14.268V48.236H18.192V44.66H19.56ZM27.4209 49.532C27.4209 49.78 27.4049 50.004 27.3729 50.204H22.3209C22.3609 50.732 22.5569 51.156 22.9089 51.476C23.2609 51.796 23.6929 51.956 24.2049 51.956C24.9409 51.956 25.4609 51.648 25.7649 51.032H27.2409C27.0409 51.64 26.6769 52.14 26.1489 52.532C25.6289 52.916 24.9809 53.108 24.2049 53.108C23.5729 53.108 23.0049 52.968 22.5009 52.688C22.0049 52.4 21.6129 52 21.3249 51.488C21.0449 50.968 20.9049 50.368 20.9049 49.688C20.9049 49.008 21.0409 48.412 21.3129 47.9C21.5929 47.38 21.9809 46.98 22.4769 46.7C22.9809 46.42 23.5569 46.28 24.2049 46.28C24.8289 46.28 25.3849 46.416 25.8729 46.688C26.3609 46.96 26.7409 47.344 27.0129 47.84C27.2849 48.328 27.4209 48.892 27.4209 49.532ZM25.9929 49.1C25.9849 48.596 25.8049 48.192 25.4529 47.888C25.1009 47.584 24.6649 47.432 24.1449 47.432C23.6729 47.432 23.2689 47.584 22.9329 47.888C22.5969 48.184 22.3969 48.588 22.3329 49.1H25.9929ZM29.4632 45.512C29.2152 45.512 29.0072 45.428 28.8392 45.26C28.6712 45.092 28.5872 44.884 28.5872 44.636C28.5872 44.388 28.6712 44.18 28.8392 44.012C29.0072 43.844 29.2152 43.76 29.4632 43.76C29.7032 43.76 29.9072 43.844 30.0752 44.012C30.2432 44.18 30.3272 44.388 30.3272 44.636C30.3272 44.884 30.2432 45.092 30.0752 45.26C29.9072 45.428 29.7032 45.512 29.4632 45.512ZM30.1352 46.388V53H28.7672V46.388H30.1352ZM34.5953 46.28C35.1073 46.28 35.5593 46.384 35.9513 46.592C36.3513 46.792 36.6633 47.044 36.8873 47.348V46.388H38.2673V53.108C38.2673 53.716 38.1393 54.256 37.8833 54.728C37.6273 55.208 37.2553 55.584 36.7673 55.856C36.2873 56.128 35.7113 56.264 35.0393 56.264C34.1433 56.264 33.3993 56.052 32.8073 55.628C32.2153 55.212 31.8793 54.644 31.7993 53.924H33.1553C33.2593 54.268 33.4793 54.544 33.8153 54.752C34.1593 54.968 34.5673 55.076 35.0393 55.076C35.5913 55.076 36.0353 54.908 36.3713 54.572C36.7153 54.236 36.8873 53.748 36.8873 53.108V52.004C36.6553 52.316 36.3393 52.58 35.9393 52.796C35.5473 53.004 35.0993 53.108 34.5953 53.108C34.0193 53.108 33.4913 52.964 33.0113 52.676C32.5393 52.38 32.1633 51.972 31.8833 51.452C31.6113 50.924 31.4753 50.328 31.4753 49.664C31.4753 49 31.6113 48.412 31.8833 47.9C32.1633 47.388 32.5393 46.992 33.0113 46.712C33.4913 46.424 34.0193 46.28 34.5953 46.28ZM36.8873 49.688C36.8873 49.232 36.7913 48.836 36.5993 48.5C36.4153 48.164 36.1713 47.908 35.8673 47.732C35.5633 47.556 35.2353 47.468 34.8833 47.468C34.5313 47.468 34.2033 47.556 33.8993 47.732C33.5953 47.9 33.3473 48.152 33.1553 48.488C32.9713 48.816 32.8793 49.208 32.8793 49.664C32.8793 50.12 32.9713 50.52 33.1553 50.864C33.3473 51.208 33.5953 51.472 33.8993 51.656C34.2113 51.832 34.5393 51.92 34.8833 51.92C35.2353 51.92 35.5633 51.832 35.8673 51.656C36.1713 51.48 36.4153 51.224 36.5993 50.888C36.7913 50.544 36.8873 50.144 36.8873 49.688ZM43.4841 46.28C43.9881 46.28 44.4361 46.388 44.8281 46.604C45.2281 46.82 45.5401 47.14 45.7641 47.564C45.9961 47.988 46.1121 48.5 46.1121 49.1V53H44.7561V49.304C44.7561 48.712 44.6081 48.26 44.3121 47.948C44.0161 47.628 43.6121 47.468 43.1001 47.468C42.5881 47.468 42.1801 47.628 41.8761 47.948C41.5801 48.26 41.4321 48.712 41.4321 49.304V53H40.0641V44.12H41.4321V47.156C41.6641 46.876 41.9561 46.66 42.3081 46.508C42.6681 46.356 43.0601 46.28 43.4841 46.28ZM49.453 47.504V51.164C49.453 51.412 49.509 51.592 49.621 51.704C49.741 51.808 49.941 51.86 50.221 51.86H51.061V53H49.981C49.365 53 48.893 52.856 48.565 52.568C48.237 52.28 48.073 51.812 48.073 51.164V47.504H47.293V46.388H48.073V44.744H49.453V46.388H51.061V47.504H49.453Z" fill="white"/>
<path d="M0.58 65.51C0.62 64.89 0.856667 64.4067 1.29 64.06C1.73 63.7133 2.29 63.54 2.97 63.54C3.43667 63.54 3.84 63.6233 4.18 63.79C4.52 63.9567 4.77667 64.1833 4.95 64.47C5.12333 64.7567 5.21 65.08 5.21 65.44C5.21 65.8533 5.1 66.2067 4.88 66.5C4.66 66.7933 4.39667 66.99 4.09 67.09V67.13C4.48333 67.25 4.79 67.47 5.01 67.79C5.23 68.1033 5.34 68.5067 5.34 69C5.34 69.3933 5.25 69.7433 5.07 70.05C4.89 70.3567 4.62333 70.6 4.27 70.78C3.91667 70.9533 3.49333 71.04 3 71.04C2.28 71.04 1.68667 70.8567 1.22 70.49C0.76 70.1167 0.513333 69.5833 0.48 68.89H1.58C1.60667 69.2433 1.74333 69.5333 1.99 69.76C2.23667 69.98 2.57 70.09 2.99 70.09C3.39667 70.09 3.71 69.98 3.93 69.76C4.15 69.5333 4.26 69.2433 4.26 68.89C4.26 68.4233 4.11 68.0933 3.81 67.9C3.51667 67.7 3.06333 67.6 2.45 67.6H2.19V66.66H2.46C3 66.6533 3.41 66.5633 3.69 66.39C3.97667 66.2167 4.12 65.9433 4.12 65.57C4.12 65.25 4.01667 64.9967 3.81 64.81C3.60333 64.6167 3.31 64.52 2.93 64.52C2.55667 64.52 2.26667 64.6167 2.06 64.81C1.85333 64.9967 1.73 65.23 1.69 65.51H0.58ZM6.5375 67.26C6.5375 66.1067 6.73083 65.2067 7.1175 64.56C7.51083 63.9067 8.18417 63.58 9.1375 63.58C10.0908 63.58 10.7608 63.9067 11.1475 64.56C11.5408 65.2067 11.7375 66.1067 11.7375 67.26C11.7375 68.4267 11.5408 69.34 11.1475 70C10.7608 70.6533 10.0908 70.98 9.1375 70.98C8.18417 70.98 7.51083 70.6533 7.1175 70C6.73083 69.34 6.5375 68.4267 6.5375 67.26ZM10.6175 67.26C10.6175 66.72 10.5808 66.2633 10.5075 65.89C10.4408 65.5167 10.3008 65.2133 10.0875 64.98C9.87417 64.74 9.5575 64.62 9.1375 64.62C8.7175 64.62 8.40083 64.74 8.1875 64.98C7.97417 65.2133 7.83083 65.5167 7.7575 65.89C7.69083 66.2633 7.6575 66.72 7.6575 67.26C7.6575 67.82 7.69083 68.29 7.7575 68.67C7.82417 69.05 7.96417 69.3567 8.1775 69.59C8.3975 69.8233 8.7175 69.94 9.1375 69.94C9.5575 69.94 9.87417 69.8233 10.0875 69.59C10.3075 69.3567 10.4508 69.05 10.5175 68.67C10.5842 68.29 10.6175 67.82 10.6175 67.26ZM12.7138 68.24C12.7138 67.6733 12.8271 67.1767 13.0538 66.75C13.2871 66.3167 13.6071 65.9833 14.0138 65.75C14.4204 65.5167 14.8871 65.4 15.4138 65.4C16.0804 65.4 16.6304 65.56 17.0638 65.88C17.5038 66.1933 17.8004 66.6433 17.9538 67.23H16.7238C16.6238 66.9567 16.4638 66.7433 16.2438 66.59C16.0238 66.4367 15.7471 66.36 15.4138 66.36C14.9471 66.36 14.5738 66.5267 14.2938 66.86C14.0204 67.1867 13.8838 67.6467 13.8838 68.24C13.8838 68.8333 14.0204 69.2967 14.2938 69.63C14.5738 69.9633 14.9471 70.13 15.4138 70.13C16.0738 70.13 16.5104 69.84 16.7238 69.26H17.9538C17.7938 69.82 17.4938 70.2667 17.0538 70.6C16.6138 70.9267 16.0671 71.09 15.4138 71.09C14.8871 71.09 14.4204 70.9733 14.0138 70.74C13.6071 70.5 13.2871 70.1667 13.0538 69.74C12.8271 69.3067 12.7138 68.8067 12.7138 68.24ZM25.7598 65.4C26.1932 65.4 26.5798 65.49 26.9198 65.67C27.2665 65.85 27.5365 66.1167 27.7298 66.47C27.9298 66.8233 28.0298 67.25 28.0298 67.75V71H26.8998V67.92C26.8998 67.4267 26.7765 67.05 26.5298 66.79C26.2832 66.5233 25.9465 66.39 25.5198 66.39C25.0932 66.39 24.7532 66.5233 24.4998 66.79C24.2532 67.05 24.1298 67.4267 24.1298 67.92V71H22.9998V67.92C22.9998 67.4267 22.8765 67.05 22.6298 66.79C22.3832 66.5233 22.0465 66.39 21.6198 66.39C21.1932 66.39 20.8532 66.5233 20.5998 66.79C20.3532 67.05 20.2298 67.4267 20.2298 67.92V71H19.0898V65.49H20.2298V66.12C20.4165 65.8933 20.6532 65.7167 20.9398 65.59C21.2265 65.4633 21.5332 65.4 21.8598 65.4C22.2998 65.4 22.6932 65.4933 23.0398 65.68C23.3865 65.8667 23.6532 66.1367 23.8398 66.49C24.0065 66.1567 24.2665 65.8933 24.6198 65.7C24.9732 65.5 25.3532 65.4 25.7598 65.4ZM33.7105 66.9V67.86H29.6005V66.9H33.7105ZM35.0401 69.48V68.62L38.4001 63.8H39.7801V68.49H40.7101V69.48H39.7801V71H38.6601V69.48H35.0401ZM38.7101 64.96L36.3501 68.49H38.7101V64.96ZM41.6547 67.26C41.6547 66.1067 41.848 65.2067 42.2347 64.56C42.628 63.9067 43.3014 63.58 44.2547 63.58C45.208 63.58 45.878 63.9067 46.2647 64.56C46.658 65.2067 46.8547 66.1067 46.8547 67.26C46.8547 68.4267 46.658 69.34 46.2647 70C45.878 70.6533 45.208 70.98 44.2547 70.98C43.3014 70.98 42.628 70.6533 42.2347 70C41.848 69.34 41.6547 68.4267 41.6547 67.26ZM45.7347 67.26C45.7347 66.72 45.698 66.2633 45.6247 65.89C45.558 65.5167 45.418 65.2133 45.2047 64.98C44.9914 64.74 44.6747 64.62 44.2547 64.62C43.8347 64.62 43.518 64.74 43.3047 64.98C43.0914 65.2133 42.948 65.5167 42.8747 65.89C42.808 66.2633 42.7747 66.72 42.7747 67.26C42.7747 67.82 42.808 68.29 42.8747 68.67C42.9414 69.05 43.0814 69.3567 43.2947 69.59C43.5147 69.8233 43.8347 69.94 44.2547 69.94C44.6747 69.94 44.9914 69.8233 45.2047 69.59C45.4247 69.3567 45.568 69.05 45.6347 68.67C45.7014 68.29 45.7347 67.82 45.7347 67.26ZM47.8309 68.24C47.8309 67.6733 47.9443 67.1767 48.1709 66.75C48.4043 66.3167 48.7243 65.9833 49.1309 65.75C49.5376 65.5167 50.0043 65.4 50.5309 65.4C51.1976 65.4 51.7476 65.56 52.1809 65.88C52.6209 66.1933 52.9176 66.6433 53.0709 67.23H51.8409C51.7409 66.9567 51.5809 66.7433 51.3609 66.59C51.1409 66.4367 50.8643 66.36 50.5309 66.36C50.0643 66.36 49.6909 66.5267 49.4109 66.86C49.1376 67.1867 49.0009 67.6467 49.0009 68.24C49.0009 68.8333 49.1376 69.2967 49.4109 69.63C49.6909 69.9633 50.0643 70.13 50.5309 70.13C51.1909 70.13 51.6276 69.84 51.8409 69.26H53.0709C52.9109 69.82 52.6109 70.2667 52.1709 70.6C51.7309 70.9267 51.1843 71.09 50.5309 71.09C50.0043 71.09 49.5376 70.9733 49.1309 70.74C48.7243 70.5 48.4043 70.1667 48.1709 69.74C47.9443 69.3067 47.8309 68.8067 47.8309 68.24ZM60.877 65.4C61.3104 65.4 61.697 65.49 62.037 65.67C62.3837 65.85 62.6537 66.1167 62.847 66.47C63.047 66.8233 63.147 67.25 63.147 67.75V71H62.017V67.92C62.017 67.4267 61.8937 67.05 61.647 66.79C61.4004 66.5233 61.0637 66.39 60.637 66.39C60.2104 66.39 59.8704 66.5233 59.617 66.79C59.3704 67.05 59.247 67.4267 59.247 67.92V71H58.117V67.92C58.117 67.4267 57.9937 67.05 57.747 66.79C57.5004 66.5233 57.1637 66.39 56.737 66.39C56.3104 66.39 55.9704 66.5233 55.717 66.79C55.4704 67.05 55.347 67.4267 55.347 67.92V71H54.207V65.49H55.347V66.12C55.5337 65.8933 55.7704 65.7167 56.057 65.59C56.3437 65.4633 56.6504 65.4 56.977 65.4C57.417 65.4 57.8104 65.4933 58.157 65.68C58.5037 65.8667 58.7704 66.1367 58.957 66.49C59.1237 66.1567 59.3837 65.8933 59.737 65.7C60.0904 65.5 60.4704 65.4 60.877 65.4Z" fill="white" fill-opacity="0.6"/>
</svg>
