<svg width="80" height="81" viewBox="0 0 80 81" fill="none" xmlns="http://www.w3.org/2000/svg">
<path d="M45.9167 20.4933V4.54167C45.9167 3.60236 45.5435 2.70152 44.8793 2.03733C44.2151 1.37314 43.3143 1 42.375 1C41.4357 1 40.5349 1.37314 39.8707 2.03733C39.2065 2.70152 38.8333 3.60236 38.8333 4.54167V20.4933C37.6961 21.2532 36.8335 22.3585 36.3727 23.6463C35.9119 24.934 35.8775 26.3357 36.2745 27.6445C36.6715 28.9533 37.4789 30.0997 38.5774 30.9144C39.6759 31.7292 41.0073 32.169 42.375 32.169C43.7427 32.169 45.0741 31.7292 46.1726 30.9144C47.2711 30.0997 48.0785 28.9533 48.4755 27.6445C48.8725 26.3357 48.8381 24.934 48.3773 23.6463C47.9165 22.3585 47.0539 21.2532 45.9167 20.4933Z" stroke="white" stroke-width="2" stroke-linecap="round" stroke-linejoin="round"/>
<path d="M31 9H35" stroke="white" stroke-width="2" stroke-linecap="round" stroke-linejoin="round"/>
<path d="M31 13H35" stroke="white" stroke-width="2" stroke-linecap="round" stroke-linejoin="round"/>
<path d="M31 17H35" stroke="white" stroke-width="2" stroke-linecap="round" stroke-linejoin="round"/>
<path d="M16.23 75.45C16.87 74.8967 17.3733 74.4433 17.74 74.09C18.1133 73.73 18.4233 73.3567 18.67 72.97C18.9167 72.5833 19.04 72.1967 19.04 71.81C19.04 71.41 18.9433 71.0967 18.75 70.87C18.5633 70.6433 18.2667 70.53 17.86 70.53C17.4667 70.53 17.16 70.6567 16.94 70.91C16.7267 71.1567 16.6133 71.49 16.6 71.91H15.5C15.52 71.15 15.7467 70.57 16.18 70.17C16.62 69.7633 17.1767 69.56 17.85 69.56C18.5767 69.56 19.1433 69.76 19.55 70.16C19.9633 70.56 20.17 71.0933 20.17 71.76C20.17 72.24 20.0467 72.7033 19.8 73.15C19.56 73.59 19.27 73.9867 18.93 74.34C18.5967 74.6867 18.17 75.09 17.65 75.55L17.2 75.95H20.37V76.9H15.51V76.07L16.23 75.45ZM21.3715 73.26C21.3715 72.1067 21.5648 71.2067 21.9515 70.56C22.3448 69.9067 23.0182 69.58 23.9715 69.58C24.9248 69.58 25.5948 69.9067 25.9815 70.56C26.3748 71.2067 26.5715 72.1067 26.5715 73.26C26.5715 74.4267 26.3748 75.34 25.9815 76C25.5948 76.6533 24.9248 76.98 23.9715 76.98C23.0182 76.98 22.3448 76.6533 21.9515 76C21.5648 75.34 21.3715 74.4267 21.3715 73.26ZM25.4515 73.26C25.4515 72.72 25.4148 72.2633 25.3415 71.89C25.2748 71.5167 25.1348 71.2133 24.9215 70.98C24.7082 70.74 24.3915 70.62 23.9715 70.62C23.5515 70.62 23.2348 70.74 23.0215 70.98C22.8082 71.2133 22.6648 71.5167 22.5915 71.89C22.5248 72.2633 22.4915 72.72 22.4915 73.26C22.4915 73.82 22.5248 74.29 22.5915 74.67C22.6582 75.05 22.7982 75.3567 23.0115 75.59C23.2315 75.8233 23.5515 75.94 23.9715 75.94C24.3915 75.94 24.7082 75.8233 24.9215 75.59C25.1415 75.3567 25.2848 75.05 25.3515 74.67C25.4182 74.29 25.4515 73.82 25.4515 73.26ZM28.1077 70.05H29.3477L28.2977 72.43H27.4977L28.1077 70.05ZM29.9696 73.51C29.9696 72.83 30.1263 72.22 30.4396 71.68C30.7596 71.14 31.1896 70.72 31.7296 70.42C32.2763 70.1133 32.8729 69.96 33.5196 69.96C34.2596 69.96 34.9163 70.1433 35.4896 70.51C36.0696 70.87 36.4896 71.3833 36.7496 72.05H35.3796C35.1996 71.6833 34.9496 71.41 34.6296 71.23C34.3096 71.05 33.9396 70.96 33.5196 70.96C33.0596 70.96 32.6496 71.0633 32.2896 71.27C31.9296 71.4767 31.6463 71.7733 31.4396 72.16C31.2396 72.5467 31.1396 72.9967 31.1396 73.51C31.1396 74.0233 31.2396 74.4733 31.4396 74.86C31.6463 75.2467 31.9296 75.5467 32.2896 75.76C32.6496 75.9667 33.0596 76.07 33.5196 76.07C33.9396 76.07 34.3096 75.98 34.6296 75.8C34.9496 75.62 35.1996 75.3467 35.3796 74.98H36.7496C36.4896 75.6467 36.0696 76.16 35.4896 76.52C34.9163 76.88 34.2596 77.06 33.5196 77.06C32.8663 77.06 32.2696 76.91 31.7296 76.61C31.1896 76.3033 30.7596 75.88 30.4396 75.34C30.1263 74.8 29.9696 74.19 29.9696 73.51ZM42.314 72.9V73.86H38.204V72.9H42.314ZM44.4136 75.45C45.0536 74.8967 45.5569 74.4433 45.9236 74.09C46.2969 73.73 46.6069 73.3567 46.8536 72.97C47.1003 72.5833 47.2236 72.1967 47.2236 71.81C47.2236 71.41 47.1269 71.0967 46.9336 70.87C46.7469 70.6433 46.4503 70.53 46.0436 70.53C45.6503 70.53 45.3436 70.6567 45.1236 70.91C44.9103 71.1567 44.7969 71.49 44.7836 71.91H43.6836C43.7036 71.15 43.9303 70.57 44.3636 70.17C44.8036 69.7633 45.3603 69.56 46.0336 69.56C46.7603 69.56 47.3269 69.76 47.7336 70.16C48.1469 70.56 48.3536 71.0933 48.3536 71.76C48.3536 72.24 48.2303 72.7033 47.9836 73.15C47.7436 73.59 47.4536 73.9867 47.1136 74.34C46.7803 74.6867 46.3536 75.09 45.8336 75.55L45.3836 75.95H48.5536V76.9H43.6936V76.07L44.4136 75.45ZM54.2551 70.69H50.9051V72.68C51.0451 72.4933 51.2517 72.3367 51.5251 72.21C51.8051 72.0833 52.1017 72.02 52.4151 72.02C52.9751 72.02 53.4284 72.14 53.7751 72.38C54.1284 72.62 54.3784 72.9233 54.5251 73.29C54.6784 73.6567 54.7551 74.0433 54.7551 74.45C54.7551 74.9433 54.6584 75.3833 54.4651 75.77C54.2784 76.15 53.9951 76.45 53.6151 76.67C53.2417 76.89 52.7817 77 52.2351 77C51.5084 77 50.9251 76.82 50.4851 76.46C50.0451 76.1 49.7817 75.6233 49.6951 75.03H50.8051C50.8784 75.3433 51.0417 75.5933 51.2951 75.78C51.5484 75.96 51.8651 76.05 52.2451 76.05C52.7184 76.05 53.0717 75.9067 53.3051 75.62C53.5451 75.3333 53.6651 74.9533 53.6651 74.48C53.6651 74 53.5451 73.6333 53.3051 73.38C53.0651 73.12 52.7117 72.99 52.2451 72.99C51.9184 72.99 51.6417 73.0733 51.4151 73.24C51.1951 73.4 51.0351 73.62 50.9351 73.9H49.8551V69.69H54.2551V70.69ZM56.2718 70.05H57.5118L56.4618 72.43H55.6618L56.2718 70.05ZM58.1337 73.51C58.1337 72.83 58.2903 72.22 58.6037 71.68C58.9237 71.14 59.3537 70.72 59.8937 70.42C60.4403 70.1133 61.037 69.96 61.6837 69.96C62.4237 69.96 63.0803 70.1433 63.6537 70.51C64.2337 70.87 64.6537 71.3833 64.9137 72.05H63.5437C63.3637 71.6833 63.1137 71.41 62.7937 71.23C62.4737 71.05 62.1037 70.96 61.6837 70.96C61.2237 70.96 60.8137 71.0633 60.4537 71.27C60.0937 71.4767 59.8103 71.7733 59.6037 72.16C59.4037 72.5467 59.3037 72.9967 59.3037 73.51C59.3037 74.0233 59.4037 74.4733 59.6037 74.86C59.8103 75.2467 60.0937 75.5467 60.4537 75.76C60.8137 75.9667 61.2237 76.07 61.6837 76.07C62.1037 76.07 62.4737 75.98 62.7937 75.8C63.1137 75.62 63.3637 75.3467 63.5437 74.98H64.9137C64.6537 75.6467 64.2337 76.16 63.6537 76.52C63.0803 76.88 62.4237 77.06 61.6837 77.06C61.0303 77.06 60.4337 76.91 59.8937 76.61C59.3537 76.3033 58.9237 75.88 58.6037 75.34C58.2903 74.8 58.1337 74.19 58.1337 73.51Z" fill="white" fill-opacity="0.6"/>
<path d="M6.288 50.66V51.776H4.068V59H2.7V51.776H0.468V50.66H6.288ZM13.7334 55.532C13.7334 55.78 13.7174 56.004 13.6854 56.204H8.63344C8.67344 56.732 8.86944 57.156 9.22144 57.476C9.57344 57.796 10.0054 57.956 10.5174 57.956C11.2534 57.956 11.7734 57.648 12.0774 57.032H13.5534C13.3534 57.64 12.9894 58.14 12.4614 58.532C11.9414 58.916 11.2934 59.108 10.5174 59.108C9.88544 59.108 9.31744 58.968 8.81344 58.688C8.31744 58.4 7.92544 58 7.63744 57.488C7.35744 56.968 7.21744 56.368 7.21744 55.688C7.21744 55.008 7.35344 54.412 7.62544 53.9C7.90544 53.38 8.29344 52.98 8.78944 52.7C9.29344 52.42 9.86944 52.28 10.5174 52.28C11.1414 52.28 11.6974 52.416 12.1854 52.688C12.6734 52.96 13.0534 53.344 13.3254 53.84C13.5974 54.328 13.7334 54.892 13.7334 55.532ZM12.3054 55.1C12.2974 54.596 12.1174 54.192 11.7654 53.888C11.4134 53.584 10.9774 53.432 10.4574 53.432C9.98544 53.432 9.58144 53.584 9.24544 53.888C8.90944 54.184 8.70944 54.588 8.64544 55.1H12.3054ZM23.0837 52.28C23.6037 52.28 24.0677 52.388 24.4757 52.604C24.8917 52.82 25.2157 53.14 25.4477 53.564C25.6877 53.988 25.8077 54.5 25.8077 55.1V59H24.4517V55.304C24.4517 54.712 24.3037 54.26 24.0077 53.948C23.7117 53.628 23.3077 53.468 22.7957 53.468C22.2837 53.468 21.8757 53.628 21.5717 53.948C21.2757 54.26 21.1277 54.712 21.1277 55.304V59H19.7717V55.304C19.7717 54.712 19.6237 54.26 19.3277 53.948C19.0317 53.628 18.6277 53.468 18.1157 53.468C17.6037 53.468 17.1957 53.628 16.8917 53.948C16.5957 54.26 16.4477 54.712 16.4477 55.304V59H15.0797V52.388H16.4477V53.144C16.6717 52.872 16.9557 52.66 17.2997 52.508C17.6437 52.356 18.0117 52.28 18.4037 52.28C18.9317 52.28 19.4037 52.392 19.8197 52.616C20.2357 52.84 20.5557 53.164 20.7797 53.588C20.9797 53.188 21.2917 52.872 21.7157 52.64C22.1397 52.4 22.5957 52.28 23.0837 52.28ZM28.9164 53.36C29.1484 53.056 29.4644 52.8 29.8644 52.592C30.2644 52.384 30.7164 52.28 31.2204 52.28C31.7964 52.28 32.3204 52.424 32.7924 52.712C33.2724 52.992 33.6484 53.388 33.9204 53.9C34.1924 54.412 34.3284 55 34.3284 55.664C34.3284 56.328 34.1924 56.924 33.9204 57.452C33.6484 57.972 33.2724 58.38 32.7924 58.676C32.3204 58.964 31.7964 59.108 31.2204 59.108C30.7164 59.108 30.2684 59.008 29.8764 58.808C29.4844 58.6 29.1644 58.344 28.9164 58.04V62.144H27.5484V52.388H28.9164V53.36ZM32.9364 55.664C32.9364 55.208 32.8404 54.816 32.6484 54.488C32.4644 54.152 32.2164 53.9 31.9044 53.732C31.6004 53.556 31.2724 53.468 30.9204 53.468C30.5764 53.468 30.2484 53.556 29.9364 53.732C29.6324 53.908 29.3844 54.164 29.1924 54.5C29.0084 54.836 28.9164 55.232 28.9164 55.688C28.9164 56.144 29.0084 56.544 29.1924 56.888C29.3844 57.224 29.6324 57.48 29.9364 57.656C30.2484 57.832 30.5764 57.92 30.9204 57.92C31.2724 57.92 31.6004 57.832 31.9044 57.656C32.2164 57.472 32.4644 57.208 32.6484 56.864C32.8404 56.52 32.9364 56.12 32.9364 55.664ZM41.7413 55.532C41.7413 55.78 41.7253 56.004 41.6933 56.204H36.6413C36.6813 56.732 36.8773 57.156 37.2293 57.476C37.5813 57.796 38.0133 57.956 38.5253 57.956C39.2613 57.956 39.7813 57.648 40.0853 57.032H41.5612C41.3613 57.64 40.9973 58.14 40.4693 58.532C39.9493 58.916 39.3013 59.108 38.5253 59.108C37.8933 59.108 37.3253 58.968 36.8213 58.688C36.3253 58.4 35.9333 58 35.6453 57.488C35.3653 56.968 35.2253 56.368 35.2253 55.688C35.2253 55.008 35.3613 54.412 35.6333 53.9C35.9133 53.38 36.3013 52.98 36.7973 52.7C37.3013 52.42 37.8773 52.28 38.5253 52.28C39.1493 52.28 39.7053 52.416 40.1933 52.688C40.6813 52.96 41.0613 53.344 41.3333 53.84C41.6053 54.328 41.7413 54.892 41.7413 55.532ZM40.3133 55.1C40.3053 54.596 40.1253 54.192 39.7733 53.888C39.4213 53.584 38.9853 53.432 38.4653 53.432C37.9933 53.432 37.5893 53.584 37.2533 53.888C36.9173 54.184 36.7173 54.588 36.6533 55.1H40.3133ZM44.4555 53.348C44.6555 53.012 44.9195 52.752 45.2475 52.568C45.5835 52.376 45.9795 52.28 46.4355 52.28V53.696H46.0875C45.5515 53.696 45.1435 53.832 44.8635 54.104C44.5915 54.376 44.4555 54.848 44.4555 55.52V59H43.0875V52.388H44.4555V53.348ZM47.237 55.664C47.237 55 47.373 54.412 47.645 53.9C47.925 53.388 48.301 52.992 48.773 52.712C49.253 52.424 49.781 52.28 50.357 52.28C50.877 52.28 51.329 52.384 51.713 52.592C52.105 52.792 52.417 53.044 52.649 53.348V52.388H54.029V59H52.649V58.016C52.417 58.328 52.101 58.588 51.701 58.796C51.301 59.004 50.845 59.108 50.333 59.108C49.765 59.108 49.245 58.964 48.773 58.676C48.301 58.38 47.925 57.972 47.645 57.452C47.373 56.924 47.237 56.328 47.237 55.664ZM52.649 55.688C52.649 55.232 52.553 54.836 52.361 54.5C52.177 54.164 51.933 53.908 51.629 53.732C51.325 53.556 50.997 53.468 50.645 53.468C50.293 53.468 49.965 53.556 49.661 53.732C49.357 53.9 49.109 54.152 48.917 54.488C48.733 54.816 48.641 55.208 48.641 55.664C48.641 56.12 48.733 56.52 48.917 56.864C49.109 57.208 49.357 57.472 49.661 57.656C49.973 57.832 50.301 57.92 50.645 57.92C50.997 57.92 51.325 57.832 51.629 57.656C51.933 57.48 52.177 57.224 52.361 56.888C52.553 56.544 52.649 56.144 52.649 55.688ZM57.4218 53.504V57.164C57.4218 57.412 57.4778 57.592 57.5898 57.704C57.7098 57.808 57.9098 57.86 58.1898 57.86H59.0298V59H57.9498C57.3338 59 56.8618 58.856 56.5338 58.568C56.2058 58.28 56.0418 57.812 56.0418 57.164V53.504H55.2618V52.388H56.0418V50.744H57.4218V52.388H59.0298V53.504H57.4218ZM66.2786 52.388V59H64.9106V58.22C64.6946 58.492 64.4106 58.708 64.0586 58.868C63.7146 59.02 63.3466 59.096 62.9546 59.096C62.4346 59.096 61.9666 58.988 61.5506 58.772C61.1426 58.556 60.8186 58.236 60.5786 57.812C60.3466 57.388 60.2306 56.876 60.2306 56.276V52.388H61.5866V56.072C61.5866 56.664 61.7346 57.12 62.0306 57.44C62.3266 57.752 62.7306 57.908 63.2426 57.908C63.7546 57.908 64.1586 57.752 64.4546 57.44C64.7586 57.12 64.9106 56.664 64.9106 56.072V52.388H66.2786ZM69.4516 53.348C69.6516 53.012 69.9156 52.752 70.2436 52.568C70.5796 52.376 70.9756 52.28 71.4316 52.28V53.696H71.0836C70.5476 53.696 70.1396 53.832 69.8596 54.104C69.5876 54.376 69.4516 54.848 69.4516 55.52V59H68.0836V52.388H69.4516V53.348ZM78.7491 55.532C78.7491 55.78 78.7331 56.004 78.7011 56.204H73.6491C73.6891 56.732 73.8851 57.156 74.2371 57.476C74.5891 57.796 75.0211 57.956 75.5331 57.956C76.2691 57.956 76.7891 57.648 77.0931 57.032H78.5691C78.3691 57.64 78.0051 58.14 77.4771 58.532C76.9571 58.916 76.3091 59.108 75.5331 59.108C74.9011 59.108 74.3331 58.968 73.8291 58.688C73.3331 58.4 72.9411 58 72.6531 57.488C72.3731 56.968 72.2331 56.368 72.2331 55.688C72.2331 55.008 72.3691 54.412 72.6411 53.9C72.9211 53.38 73.3091 52.98 73.8051 52.7C74.3091 52.42 74.8851 52.28 75.5331 52.28C76.1571 52.28 76.7131 52.416 77.2011 52.688C77.6891 52.96 78.0691 53.344 78.3411 53.84C78.6131 54.328 78.7491 54.892 78.7491 55.532ZM77.3211 55.1C77.3131 54.596 77.1331 54.192 76.7811 53.888C76.4291 53.584 75.9931 53.432 75.4731 53.432C75.0011 53.432 74.5971 53.584 74.2611 53.888C73.9251 54.184 73.7251 54.588 73.6611 55.1H77.3211Z" fill="white"/>
</svg>
