<svg width="39" height="38" viewBox="0 0 39 38" fill="none" xmlns="http://www.w3.org/2000/svg">
<path d="M33.384 7.12012H25.1043C23.8495 7.12012 22.6461 7.61859 21.7588 8.50587C20.8715 9.39315 20.373 10.5966 20.373 11.8514V24.8623C20.373 25.176 20.2484 25.4769 20.0266 25.6987C19.8048 25.9205 19.5039 26.0451 19.1902 26.0451C18.8765 26.0451 18.5757 25.9205 18.3539 25.6987C18.132 25.4769 18.0074 25.176 18.0074 24.8623V11.8514C18.0074 10.5966 17.509 9.39315 16.6217 8.50587C15.7344 7.61859 14.531 7.12012 13.2762 7.12012H4.99648C4.36908 7.12012 3.76738 7.36935 3.32373 7.81299C2.88009 8.25663 2.63086 8.85834 2.63086 9.48574V28.4107C2.63086 29.0381 2.88009 29.6398 3.32373 30.0835C3.76738 30.5271 4.36908 30.7764 4.99648 30.7764H14.459C15.4001 30.7764 16.3026 31.1502 16.9681 31.8157C17.6336 32.4811 18.0074 33.3837 18.0074 34.3248C18.0074 34.6385 18.132 34.9394 18.3539 35.1612C18.5757 35.383 18.8765 35.5076 19.1902 35.5076C19.5039 35.5076 19.8048 35.383 20.0266 35.1612C20.2484 34.9394 20.373 34.6385 20.373 34.3248C20.373 33.3837 20.7469 32.4811 21.4124 31.8157C22.0778 31.1502 22.9804 30.7764 23.9215 30.7764H33.384C34.0114 30.7764 34.6131 30.5271 35.0567 30.0835C35.5004 29.6398 35.7496 29.0381 35.7496 28.4107V9.48574C35.7496 8.85834 35.5004 8.25663 35.0567 7.81299C34.6131 7.36935 34.0114 7.12012 33.384 7.12012ZM31.0184 24.8623H25.1043C24.7906 24.8623 24.4897 24.7377 24.2679 24.5159C24.0461 24.294 23.9215 23.9932 23.9215 23.6795C23.9215 23.3658 24.0461 23.0649 24.2679 22.8431C24.4897 22.6213 24.7906 22.4967 25.1043 22.4967H31.0184C31.3321 22.4967 31.6329 22.6213 31.8547 22.8431C32.0766 23.0649 32.2012 23.3658 32.2012 23.6795C32.2012 23.9932 32.0766 24.294 31.8547 24.5159C31.6329 24.7377 31.3321 24.8623 31.0184 24.8623ZM31.0184 20.1311H25.1043C24.7906 20.1311 24.4897 20.0064 24.2679 19.7846C24.0461 19.5628 23.9215 19.2619 23.9215 18.9482C23.9215 18.6345 24.0461 18.3337 24.2679 18.1119C24.4897 17.89 24.7906 17.7654 25.1043 17.7654H31.0184C31.3321 17.7654 31.6329 17.89 31.8547 18.1119C32.0766 18.3337 32.2012 18.6345 32.2012 18.9482C32.2012 19.2619 32.0766 19.5628 31.8547 19.7846C31.6329 20.0064 31.3321 20.1311 31.0184 20.1311ZM31.0184 15.3998H25.1043C24.7906 15.3998 24.4897 15.2752 24.2679 15.0534C24.0461 14.8315 23.9215 14.5307 23.9215 14.217C23.9215 13.9033 24.0461 13.6024 24.2679 13.3806C24.4897 13.1588 24.7906 13.0342 25.1043 13.0342H31.0184C31.3321 13.0342 31.6329 13.1588 31.8547 13.3806C32.0766 13.6024 32.2012 13.9033 32.2012 14.217C32.2012 14.5307 32.0766 14.8315 31.8547 15.0534C31.6329 15.2752 31.3321 15.3998 31.0184 15.3998Z" fill="white"/>
</svg>
