<svg width="41" height="41" viewBox="0 0 41 41" fill="none" xmlns="http://www.w3.org/2000/svg">
<circle cx="21" cy="21" r="23" fill="#643EFF" fill-opacity="0.7"/>
<path d="M20.9999 10.88C26.5892 10.88 31.1199 15.4107 31.1199 21C31.1212 22.5712 30.7561 24.1211 30.0535 25.5265C29.351 26.9319 28.3304 28.1541 27.0729 29.096H29.0959C29.3643 29.096 29.6217 29.2026 29.8115 29.3924C30.0013 29.5822 30.1079 29.8396 30.1079 30.108C30.1079 30.3764 30.0013 30.6338 29.8115 30.8236C29.6217 31.0134 29.3643 31.12 29.0959 31.12H20.9999C15.4106 31.12 10.8799 26.5893 10.8799 21C10.8799 15.4107 15.4106 10.88 20.9999 10.88ZM20.9999 23.024C20.4631 23.024 19.9483 23.2372 19.5687 23.6168C19.1891 23.9964 18.9759 24.5112 18.9759 25.048C18.9759 25.5848 19.1891 26.0996 19.5687 26.4792C19.9483 26.8588 20.4631 27.072 20.9999 27.072C21.5367 27.072 22.0515 26.8588 22.4311 26.4792C22.8106 26.0996 23.0239 25.5848 23.0239 25.048C23.0239 24.5112 22.8106 23.9964 22.4311 23.6168C22.0515 23.2372 21.5367 23.024 20.9999 23.024ZM16.9519 18.976C16.4151 18.976 15.9003 19.1892 15.5207 19.5688C15.1411 19.9484 14.9279 20.4632 14.9279 21C14.9279 21.5368 15.1411 22.0516 15.5207 22.4312C15.9003 22.8108 16.4151 23.024 16.9519 23.024C17.4887 23.024 18.0035 22.8108 18.3831 22.4312C18.7626 22.0516 18.9759 21.5368 18.9759 21C18.9759 20.4632 18.7626 19.9484 18.3831 19.5688C18.0035 19.1892 17.4887 18.976 16.9519 18.976ZM25.0479 18.976C24.5111 18.976 23.9963 19.1892 23.6167 19.5688C23.2371 19.9484 23.0239 20.4632 23.0239 21C23.0239 21.5368 23.2371 22.0516 23.6167 22.4312C23.9963 22.8108 24.5111 23.024 25.0479 23.024C25.5847 23.024 26.0995 22.8108 26.4791 22.4312C26.8586 22.0516 27.0719 21.5368 27.0719 21C27.0719 20.4632 26.8586 19.9484 26.4791 19.5688C26.0995 19.1892 25.5847 18.976 25.0479 18.976ZM20.9999 14.928C20.4631 14.928 19.9483 15.1412 19.5687 15.5208C19.1891 15.9004 18.9759 16.4152 18.9759 16.952C18.9759 17.4888 19.1891 18.0036 19.5687 18.3832C19.9483 18.7628 20.4631 18.976 20.9999 18.976C21.5367 18.976 22.0515 18.7628 22.4311 18.3832C22.8106 18.0036 23.0239 17.4888 23.0239 16.952C23.0239 16.4152 22.8106 15.9004 22.4311 15.5208C22.0515 15.1412 21.5367 14.928 20.9999 14.928Z" fill="white"/>
</svg>
