<svg width="41" height="41" viewBox="0 0 41 41" fill="none" xmlns="http://www.w3.org/2000/svg">
<ellipse cx="20.476" cy="20.4502" rx="21.476" ry="22.5498" fill="#D60303" fill-opacity="0.7"/>
<path d="M24.268 22.8712C24.1682 22.766 24.0495 22.6825 23.9187 22.6255C23.7879 22.5685 23.6476 22.5391 23.5059 22.5391C23.3642 22.5391 23.2239 22.5685 23.0931 22.6255C22.9623 22.6825 22.8436 22.766 22.7438 22.8712C22.5439 23.0816 22.4317 23.3661 22.4317 23.6627C22.4317 23.9593 22.5439 24.2439 22.7438 24.4542L29.3774 31.3925C29.4772 31.4977 29.5959 31.5813 29.7267 31.6383C29.8575 31.6953 29.9978 31.7246 30.1395 31.7246C30.2812 31.7246 30.4215 31.6953 30.5523 31.6383C30.6832 31.5813 30.8019 31.4977 30.9017 31.3925C31.1016 31.1822 31.2138 30.8976 31.2138 30.601C31.2138 30.3044 31.1016 30.0199 30.9017 29.8095L24.268 22.8712ZM25.5883 20.0757C26.4421 20.0749 27.2606 19.7196 27.8639 19.0877L30.9017 15.9105C31.1016 15.7001 31.2138 15.4156 31.2138 15.119C31.2138 14.8224 31.1016 14.5378 30.9017 14.3275C30.8019 14.2223 30.6832 14.1387 30.5523 14.0817C30.4215 14.0247 30.2812 13.9954 30.1395 13.9954C29.9978 13.9954 29.8575 14.0247 29.7267 14.0817C29.5959 14.1387 29.4772 14.2223 29.3774 14.3275L26.3397 17.5047C26.1386 17.7138 25.8665 17.8312 25.583 17.8312C25.2994 17.8312 25.0273 17.7138 24.8262 17.5047L28.626 13.5304C28.826 13.32 28.9382 13.0355 28.9382 12.7389C28.9382 12.4423 28.826 12.1577 28.626 11.9474C28.5263 11.8421 28.4075 11.7586 28.2767 11.7016C28.1459 11.6446 28.0056 11.6153 27.8639 11.6153C27.7222 11.6153 27.5819 11.6446 27.4511 11.7016C27.3203 11.7586 27.2016 11.8421 27.1018 11.9474L23.3127 15.9105C23.1128 15.7001 23.0006 15.4156 23.0006 15.119C23.0006 14.8224 23.1128 14.5378 23.3127 14.3275L26.3397 11.1502C26.4521 11.0496 26.5433 10.9257 26.6078 10.7865C26.6722 10.6472 26.7084 10.4955 26.7141 10.3408C26.7198 10.1862 26.6949 10.032 26.6409 9.88797C26.587 9.7439 26.5051 9.61305 26.4005 9.50364C26.2959 9.39422 26.1708 9.30861 26.0331 9.25217C25.8953 9.19572 25.7479 9.16967 25.6001 9.17564C25.4522 9.18161 25.3072 9.21948 25.174 9.28687C25.0408 9.35426 24.9224 9.44971 24.8262 9.56724L21.7885 12.7445C21.1854 13.376 20.8467 14.2321 20.8467 15.1246C20.8467 16.0171 21.1854 16.8732 21.7885 17.5047L20.4789 18.8969L18.8044 17.1679C19.2797 16.2708 19.4594 15.2351 19.3158 14.2205C19.1723 13.206 18.7134 12.2691 18.0101 11.5544C16.4644 9.93773 12.4606 8.13018 10.5714 10.1398C8.68225 12.1494 10.389 16.2922 11.8917 17.9201C12.7309 18.801 13.8592 19.3148 15.0475 19.3572H15.1978C15.9235 19.3464 16.634 19.1374 17.2587 18.7509L18.944 20.4799L10.0562 29.7758C9.95682 29.8805 9.87813 30.0046 9.82462 30.1411C9.77111 30.2776 9.74382 30.4238 9.74432 30.5713C9.74482 30.7188 9.77309 30.8648 9.82752 31.0009C9.88196 31.137 9.96149 31.2605 10.0616 31.3644C10.1617 31.4684 10.2803 31.5507 10.4108 31.6067C10.5413 31.6626 10.6811 31.6912 10.8221 31.6907C10.9632 31.6901 11.1027 31.6606 11.2328 31.6036C11.3629 31.5467 11.4811 31.4635 11.5804 31.3588L21.241 21.2545L23.302 19.099C23.6029 19.4111 23.9597 19.6581 24.3521 19.8257C24.7444 19.9933 25.1645 20.0783 25.5883 20.0757ZM16.6469 16.4831C16.4458 16.6922 16.2058 16.8558 15.9418 16.964C15.6777 17.0721 15.3953 17.1224 15.1119 17.1118C14.4844 17.0835 13.8918 16.8018 13.4589 16.3259C12.2996 15.1134 11.4838 12.3628 12.0957 11.7228C12.2989 11.5625 12.55 11.4829 12.8041 11.4983C14.1741 11.6125 15.4708 12.1921 16.4966 13.1486C16.9349 13.5727 17.1962 14.1599 17.2243 14.7837C17.2524 15.4074 17.045 16.0178 16.6469 16.4831Z" fill="white"/>
</svg>
