<svg width="74" height="74" viewBox="0 0 74 74" fill="none" xmlns="http://www.w3.org/2000/svg">
<circle cx="37" cy="37" r="37" fill="#8C8080" fill-opacity="0.2"/>
<g opacity="0.5">
<path fill-rule="evenodd" clip-rule="evenodd" d="M27.1716 27.1718C26 28.3433 26 30.2289 26 34.0002V39.9996C26 43.7708 26 45.6564 27.1716 46.828C28.3431 47.9996 30.2288 47.9996 34 47.9996H39.9994C43.7706 47.9996 45.6562 47.9996 46.8278 46.828C47.9994 45.6564 47.9994 43.7708 47.9994 39.9996V34.0002C47.9994 31.0692 47.9994 29.2772 47.4494 28.0742V42.4997C46.3929 42.4997 45.3798 42.08 44.6327 41.333L43.8059 40.5062C42.878 39.5782 42.414 39.1143 41.8641 38.983C41.5587 38.91 41.2404 38.91 40.9351 38.983C40.3851 39.1143 39.9212 39.5782 38.9932 40.5062L38.9932 40.5062L38.8687 40.6307C38.1279 41.3715 37.7574 41.742 37.3521 41.7481C37.2147 41.7501 37.0784 41.7239 36.9517 41.671C36.5776 41.5147 36.3712 41.0332 35.9585 40.0702L35.8997 39.9331C34.9652 37.7525 34.4979 36.6622 33.6106 36.3906C33.4743 36.3489 33.3339 36.3218 33.1918 36.3099C32.2671 36.2326 31.4283 37.0714 29.7508 38.7489L27.65 40.8498V26.7829C27.4776 26.8955 27.319 27.0244 27.1716 27.1718Z" fill="#7D7D7D"/>
<path d="M27 34C27 32.0861 27.0021 30.7513 27.1375 29.7442C27.2691 28.7658 27.5097 28.2477 27.8787 27.8787C28.2477 27.5097 28.7658 27.2691 29.7442 27.1375C30.7513 27.0021 32.0861 27 34 27H39.9994C41.9133 27 43.2481 27.0021 44.2552 27.1375C45.2336 27.2691 45.7517 27.5097 46.1207 27.8787C46.4897 28.2477 46.7303 28.7658 46.8618 29.7442C46.9972 30.7513 46.9994 32.0861 46.9994 34V39.9994C46.9994 41.9133 46.9972 43.2481 46.8618 44.2552C46.7303 45.2336 46.4897 45.7517 46.1207 46.1207C45.7517 46.4897 45.2336 46.7303 44.2552 46.8618C43.2481 46.9972 41.9133 46.9994 39.9994 46.9994H34C32.0861 46.9994 30.7513 46.9972 29.7442 46.8618C28.7658 46.7303 28.2477 46.4897 27.8787 46.1207C27.5097 45.7517 27.2691 45.2336 27.1375 44.2552C27.0021 43.2481 27 41.9133 27 39.9994V34Z" stroke="#7D7D7D" stroke-width="2"/>
<circle cx="40.2995" cy="33.6998" r="2.19994" fill="#7D7D7D"/>
</g>
</svg>
