<svg width="144" height="144" viewBox="0 0 144 144" fill="none" xmlns="http://www.w3.org/2000/svg">
<circle cx="72" cy="72" r="72" fill="#EAEEEB"/>
<g filter="url(#filter0_d_26799_2)">
<path d="M77.3898 42.6199L60.5471 52.9447H80.1033L83.004 51.7759H86.1853C85.6239 50.4447 84.1268 47.1005 82.6297 44.3732C81.1326 41.6459 78.5126 42.068 77.3898 42.6199Z" fill="#FF6600"/>
</g>
<g filter="url(#filter1_d_26799_2)">
<path fill-rule="evenodd" clip-rule="evenodd" d="M66.51 52.9453H98.1106L97.0085 48.9396C96.3801 46.6557 94.0264 45.3156 91.7513 45.9464L66.51 52.9453Z" fill="#0000FF"/>
</g>
<g filter="url(#filter2_d_26799_2)">
<mask id="mask0_26799_2" style="mask-type:alpha" maskUnits="userSpaceOnUse" x="36" y="55" width="71" height="47">
<path d="M36.6975 60.0739C36.6975 57.4916 38.7908 55.3983 41.3731 55.3983H101.782C104.364 55.3983 106.457 57.4916 106.457 60.0739V96.3565C106.457 98.9388 104.364 101.032 101.782 101.032H41.3731C38.7908 101.032 36.6975 98.9388 36.6975 96.3565V60.0739Z" fill="#0EA16C"/>
</mask>
<g mask="url(#mask0_26799_2)">
<path d="M35.9492 55.0251H107.205V101.407H35.9492V55.0251Z" fill="#0EA16C"/>
<g filter="url(#filter3_d_26799_2)">
<path d="M84.9501 69.7986H106.458V88.127H84.9501L74.8508 78.3082L84.9501 69.7986Z" fill="#007745"/>
<path d="M86.8197 78.587C86.8197 80.033 85.6474 81.2053 84.2013 81.2053C82.7553 81.2053 81.583 80.033 81.583 78.587C81.583 77.1409 82.7553 75.9686 84.2013 75.9686C85.6474 75.9686 86.8197 77.1409 86.8197 78.587Z" fill="white"/>
</g>
</g>
</g>
<path d="M64.7206 73.9158V75.9027C64.7206 76.0846 64.6628 76.2339 64.5473 76.3508C64.4318 76.4676 64.2841 76.5261 64.1044 76.5261H60.8696C60.5744 78.3961 59.7464 79.9155 58.3857 81.0843C57.025 82.253 55.2536 82.9673 53.0714 83.227C55.2151 85.5385 58.1611 89.0188 61.9094 93.6679C62.0891 93.8757 62.1148 94.0965 61.9864 94.3302C61.8837 94.564 61.6976 94.6808 61.428 94.6808H57.6733C57.4679 94.6808 57.3074 94.6029 57.1919 94.4471C53.2639 89.6811 50.0676 85.9736 47.603 83.3244C47.4875 83.2075 47.4297 83.0647 47.4297 82.8958V80.422C47.4297 80.2531 47.4907 80.107 47.6126 79.9837C47.7346 79.8603 47.879 79.7986 48.0458 79.7986H50.2024C51.8968 79.7986 53.2607 79.5194 54.2941 78.961C55.3274 78.4026 55.9853 77.591 56.2677 76.5261H48.0458C47.8661 76.5261 47.7185 76.4676 47.603 76.3508C47.4875 76.2339 47.4297 76.0846 47.4297 75.9027V73.9158C47.4297 73.734 47.4875 73.5847 47.603 73.4678C47.7185 73.3509 47.8661 73.2925 48.0458 73.2925H55.9981C55.2664 71.8251 53.5463 71.0913 50.8378 71.0913H48.0458C47.879 71.0913 47.7346 71.0297 47.6126 70.9063C47.4907 70.7829 47.4297 70.6368 47.4297 70.468V67.8772C47.4297 67.6954 47.4875 67.5461 47.603 67.4292C47.7185 67.3123 47.8661 67.2539 48.0458 67.2539H64.0659C64.2456 67.2539 64.3933 67.3123 64.5088 67.4292C64.6243 67.5461 64.6821 67.6954 64.6821 67.8772V69.8641C64.6821 70.0459 64.6243 70.1953 64.5088 70.3122C64.3933 70.429 64.2456 70.4875 64.0659 70.4875H59.5795C60.1828 71.2796 60.5936 72.2147 60.8118 73.2925H64.1044C64.2841 73.2925 64.4318 73.3509 64.5473 73.4678C64.6628 73.5847 64.7206 73.734 64.7206 73.9158Z" fill="white"/>
<defs>
<filter id="filter0_d_26799_2" x="50.5471" y="28.2125" width="45.6382" height="30.7323" filterUnits="userSpaceOnUse" color-interpolation-filters="sRGB">
<feFlood flood-opacity="0" result="BackgroundImageFix"/>
<feColorMatrix in="SourceAlpha" type="matrix" values="0 0 0 0 0 0 0 0 0 0 0 0 0 0 0 0 0 0 127 0" result="hardAlpha"/>
<feOffset dy="-4"/>
<feGaussianBlur stdDeviation="5"/>
<feComposite in2="hardAlpha" operator="out"/>
<feColorMatrix type="matrix" values="0 0 0 0 0 0 0 0 0 0 0 0 0 0 0 0 0 0 0.25 0"/>
<feBlend mode="normal" in2="BackgroundImageFix" result="effect1_dropShadow_26799_2"/>
<feBlend mode="normal" in="SourceGraphic" in2="effect1_dropShadow_26799_2" result="shape"/>
</filter>
<filter id="filter1_d_26799_2" x="56.51" y="31.7905" width="51.6006" height="27.1548" filterUnits="userSpaceOnUse" color-interpolation-filters="sRGB">
<feFlood flood-opacity="0" result="BackgroundImageFix"/>
<feColorMatrix in="SourceAlpha" type="matrix" values="0 0 0 0 0 0 0 0 0 0 0 0 0 0 0 0 0 0 127 0" result="hardAlpha"/>
<feOffset dy="-4"/>
<feGaussianBlur stdDeviation="5"/>
<feComposite in2="hardAlpha" operator="out"/>
<feColorMatrix type="matrix" values="0 0 0 0 0 0 0 0 0 0 0 0 0 0 0 0 0 0 0.25 0"/>
<feBlend mode="normal" in2="BackgroundImageFix" result="effect1_dropShadow_26799_2"/>
<feBlend mode="normal" in="SourceGraphic" in2="effect1_dropShadow_26799_2" result="shape"/>
</filter>
<filter id="filter2_d_26799_2" x="26.6975" y="45.3983" width="89.7598" height="65.6338" filterUnits="userSpaceOnUse" color-interpolation-filters="sRGB">
<feFlood flood-opacity="0" result="BackgroundImageFix"/>
<feColorMatrix in="SourceAlpha" type="matrix" values="0 0 0 0 0 0 0 0 0 0 0 0 0 0 0 0 0 0 127 0" result="hardAlpha"/>
<feOffset/>
<feGaussianBlur stdDeviation="5"/>
<feComposite in2="hardAlpha" operator="out"/>
<feColorMatrix type="matrix" values="0 0 0 0 0 0 0 0 0 0 0 0 0 0 0 0 0 0 0.25 0"/>
<feBlend mode="normal" in2="BackgroundImageFix" result="effect1_dropShadow_26799_2"/>
<feBlend mode="normal" in="SourceGraphic" in2="effect1_dropShadow_26799_2" result="shape"/>
</filter>
<filter id="filter3_d_26799_2" x="64.8508" y="61.7986" width="47.6069" height="34.3283" filterUnits="userSpaceOnUse" color-interpolation-filters="sRGB">
<feFlood flood-opacity="0" result="BackgroundImageFix"/>
<feColorMatrix in="SourceAlpha" type="matrix" values="0 0 0 0 0 0 0 0 0 0 0 0 0 0 0 0 0 0 127 0" result="hardAlpha"/>
<feOffset dx="-2"/>
<feGaussianBlur stdDeviation="4"/>
<feComposite in2="hardAlpha" operator="out"/>
<feColorMatrix type="matrix" values="0 0 0 0 1 0 0 0 0 1 0 0 0 0 1 0 0 0 0.25 0"/>
<feBlend mode="normal" in2="BackgroundImageFix" result="effect1_dropShadow_26799_2"/>
<feBlend mode="normal" in="SourceGraphic" in2="effect1_dropShadow_26799_2" result="shape"/>
</filter>
</defs>
</svg>
