<svg width="41" height="41" viewBox="0 0 41 41" fill="none" xmlns="http://www.w3.org/2000/svg">
<circle cx="20.5" cy="20.5" r="21.5" fill="#00AE5B" fill-opacity="0.7"/>
<path d="M17.6594 9.39563C16.2897 9.41895 15.0525 10.2446 14.4928 11.5213L21.1943 13.5671C21.4889 11.7912 20.4333 10.0694 18.7346 9.54697C18.4302 9.45368 18.1111 9.40258 17.792 9.39563H17.6594ZM14.2375 12.3767C13.938 14.1575 14.9936 15.8842 16.6972 16.4052C18.4057 16.9262 20.2271 16.0728 20.9439 14.4205L14.2375 12.3767ZM27.2723 14.5743C26.0302 14.5793 24.7095 15.1846 23.7129 16.6087L17.5858 25.3862C15.9411 27.7381 16.6579 30.1992 18.278 31.3603C19.9031 32.5263 22.4315 32.3923 24.0762 30.0404L30.1984 21.2679C31.8431 18.911 31.1263 16.4549 29.5061 15.2888C28.8974 14.8522 28.1658 14.5991 27.395 14.5743H27.2723ZM27.1839 15.4327C27.2478 15.4327 27.3116 15.4327 27.3705 15.4377C27.9645 15.4625 28.5242 15.6758 28.9955 16.0182C30.2573 16.9213 30.8906 18.7224 29.4718 20.7518L26.3051 25.2919C24.5475 24.8156 22.2891 23.1931 21.263 21.6698L24.4395 17.1247C25.2692 15.9388 26.256 15.4526 27.1839 15.4327ZM11.4661 19.2136C10.9938 19.2186 10.5279 19.3178 10.0948 19.5114C8.46928 20.2308 7.62337 22.0667 8.11923 23.7934L14.537 20.9602C13.8938 19.8636 12.7254 19.1988 11.4661 19.2136ZM14.8856 21.774L8.46879 24.6121C9.3746 26.1702 11.282 26.7954 12.9168 26.0759C14.5468 25.3515 15.3912 23.5056 14.8856 21.774Z" fill="white"/>
</svg>
