<svg width="4" height="7" viewBox="0 0 4 7" fill="none" xmlns="http://www.w3.org/2000/svg">
<path d="M3.81059 2.61895L1.0955 0.192816C1.03598 0.139184 0.965153 0.0966156 0.88712 0.0675657C0.809088 0.0385158 0.72539 0.0235596 0.640857 0.0235596C0.556323 0.0235596 0.472626 0.0385158 0.394593 0.0675657C0.316561 0.0966156 0.245738 0.139184 0.186209 0.192816C0.0669431 0.300025 0 0.44505 0 0.596218C0 0.747385 0.0669431 0.892411 0.186209 0.99962L2.45305 3.02521L0.186209 5.05081C0.0669431 5.15802 0 5.30304 0 5.45421C0 5.60538 0.0669431 5.7504 0.186209 5.85761C0.246043 5.91064 0.317004 5.9526 0.395023 5.98108C0.473041 6.00955 0.556583 6.02399 0.640857 6.02355C0.725131 6.02399 0.808672 6.00955 0.886691 5.98108C0.96471 5.9526 1.03567 5.91064 1.0955 5.85761L3.81059 3.43148C3.8706 3.37828 3.91824 3.315 3.95075 3.24527C3.98326 3.17554 4 3.10075 4 3.02521C4 2.94968 3.98326 2.87489 3.95075 2.80516C3.91824 2.73543 3.8706 2.67214 3.81059 2.61895Z" fill="black" fill-opacity="0.5"/>
</svg>
