<svg width="41" height="41" viewBox="0 0 41 41" fill="none" xmlns="http://www.w3.org/2000/svg">
<circle cx="21" cy="20" r="22" fill="#0094FF" fill-opacity="0.7"/>
<path d="M26.8975 18.2139C26.6255 18.2139 26.3647 18.105 26.1723 17.911C25.98 17.7171 25.8719 17.454 25.8719 17.1797C25.8719 16.9055 25.98 16.6424 26.1723 16.4485C26.3647 16.2545 26.6255 16.1455 26.8975 16.1455C27.1696 16.1455 27.4304 16.2545 27.6228 16.4485C27.8151 16.6424 27.9232 16.9055 27.9232 17.1797C27.9232 17.454 27.8151 17.7171 27.6228 17.911C27.4304 18.105 27.1696 18.2139 26.8975 18.2139ZM20.7437 18.2139H14.5899V13.043H20.7437M28.7129 15.3492L28.7232 15.3389L24.9078 11.4917L23.8206 12.5879L25.9847 14.7701C25.0206 15.1114 24.3334 16.0732 24.3334 17.1797C24.3334 17.5193 24.3998 17.8555 24.5286 18.1692C24.6575 18.4828 24.8464 18.7679 25.0845 19.0079C25.5653 19.4928 26.2175 19.7652 26.8975 19.7652C27.2668 19.7652 27.6052 19.6825 27.9232 19.548V27.0045C27.9232 27.2788 27.8151 27.5419 27.6228 27.7358C27.4304 27.9298 27.1696 28.0387 26.8975 28.0387C26.6255 28.0387 26.3647 27.9298 26.1723 27.7358C25.98 27.5419 25.8719 27.2788 25.8719 27.0045V22.3507C25.8719 21.8021 25.6558 21.276 25.2711 20.8881C24.8864 20.5002 24.3647 20.2823 23.8206 20.2823H22.795V13.043C22.795 12.4944 22.5789 11.9683 22.1942 11.5804C21.8095 11.1925 21.2877 10.9746 20.7437 10.9746H14.5899C13.4514 10.9746 12.5386 11.895 12.5386 13.043V29.59H22.795V21.8336H24.3334V27.0045C24.3334 27.6902 24.6036 28.3479 25.0845 28.8327C25.5653 29.3176 26.2175 29.59 26.8975 29.59C27.2343 29.59 27.5677 29.5231 27.8788 29.3932C28.1899 29.2633 28.4725 29.0728 28.7106 28.8327C28.9487 28.5926 29.1376 28.3076 29.2665 27.9939C29.3953 27.6803 29.4617 27.3441 29.4617 27.0045V17.1797C29.4617 16.4661 29.1745 15.8146 28.7129 15.3492Z" fill="white"/>
</svg>
