<svg width="41" height="41" viewBox="0 0 41 41" fill="none" xmlns="http://www.w3.org/2000/svg">
<circle cx="21" cy="21" r="22" fill="#F126C5" fill-opacity="0.7"/>
<path d="M27.2698 27.27C26.1099 27.27 25.1798 28.2 25.1798 29.36C25.1798 29.9143 25.4 30.4459 25.792 30.8378C26.1839 31.2298 26.7155 31.45 27.2698 31.45C27.8241 31.45 28.3557 31.2298 28.7477 30.8378C29.1396 30.4459 29.3598 29.9143 29.3598 29.36C29.3598 28.8057 29.1396 28.2741 28.7477 27.8821C28.3557 27.4902 27.8241 27.27 27.2698 27.27ZM10.5498 10.55V12.64H12.6398L16.4018 20.5715L14.9806 23.1318C14.8239 23.4244 14.7298 23.7692 14.7298 24.135C14.7298 24.6893 14.95 25.2209 15.342 25.6128C15.7339 26.0048 16.2655 26.225 16.8198 26.225H29.3598V24.135H17.2587C17.1894 24.135 17.123 24.1075 17.074 24.0585C17.025 24.0095 16.9975 23.943 16.9975 23.8737C16.9975 23.8215 17.0079 23.7797 17.0288 23.7483L17.9693 22.045H25.7546C26.5383 22.045 27.228 21.6061 27.5833 20.9686L31.3244 14.2075C31.3976 14.0403 31.4498 13.8626 31.4498 13.685C31.4498 13.4078 31.3397 13.142 31.1437 12.9461C30.9478 12.7501 30.682 12.64 30.4048 12.64H14.9493L13.967 10.55M16.8198 27.27C15.6599 27.27 14.7298 28.2 14.7298 29.36C14.7298 29.9143 14.95 30.4459 15.342 30.8378C15.7339 31.2298 16.2655 31.45 16.8198 31.45C17.3741 31.45 17.9057 31.2298 18.2977 30.8378C18.6896 30.4459 18.9098 29.9143 18.9098 29.36C18.9098 28.8057 18.6896 28.2741 18.2977 27.8821C17.9057 27.4902 17.3741 27.27 16.8198 27.27Z" fill="white"/>
</svg>
