<svg width="36" height="36" viewBox="0 0 36 36" fill="none" xmlns="http://www.w3.org/2000/svg">
<circle cx="18" cy="18" r="15.5" fill="#0D0D0E" stroke="white" stroke-width="5"/>
<path fill-rule="evenodd" clip-rule="evenodd" d="M20.5685 14.4101C20.4331 13.0559 19.3321 12 17.994 12C17.3071 11.997 16.6459 12.2793 16.1581 12.7843C15.7347 13.2228 15.4722 13.7978 15.4103 14.4101H15.4098C14.4722 14.4101 13.6845 15.1257 13.4632 16.3683L13.0627 19.5968C12.7219 21.9608 13.7857 23 15.8678 23H20.1295C22.0549 23 23.2057 21.8286 22.9694 19.7265L22.556 16.3899C22.291 15.1319 21.5235 14.4101 20.6061 14.4101H20.5685ZM19.7967 14.4101C19.6659 13.4968 18.9085 12.7963 17.9923 12.7963C17.5076 12.7942 17.042 12.9929 16.6985 13.3486C16.4196 13.6373 16.2398 14.0102 16.1821 14.4101H19.7967ZM15.4098 15.2063H20.6061C21.1441 15.2063 21.6168 15.6509 21.8023 16.5264L22.1937 19.6985C22.4266 21.3861 21.6513 22.2037 20.1295 22.2037H15.8678C14.2199 22.2037 13.5548 21.5541 13.8212 19.7067L14.2195 16.4916C14.3717 15.6404 14.8494 15.2063 15.4098 15.2063ZM19.508 16.684C19.7195 16.684 19.8909 16.8623 19.8909 17.0821C19.8909 17.2837 19.7468 17.4503 19.5599 17.4766L19.508 17.4803H19.4846C19.2732 17.4803 19.1017 17.302 19.1017 17.0821C19.1017 16.8806 19.2458 16.714 19.4327 16.6877L19.4846 16.684H19.508ZM16.9142 17.0821C16.9142 16.8623 16.7428 16.684 16.5313 16.684H16.508L16.456 16.6877C16.2691 16.714 16.1251 16.8806 16.1251 17.0821C16.1251 17.302 16.2965 17.4803 16.508 17.4803H16.5313L16.5833 17.4766C16.7702 17.4503 16.9142 17.2837 16.9142 17.0821Z" fill="white"/>
</svg>
