<svg width="30" height="30" viewBox="0 0 30 30" fill="none" xmlns="http://www.w3.org/2000/svg">
<g clip-path="url(#clip0_1_135)">
<path d="M24.25 13.3973V18.2735C24.25 20.2098 24.2493 21.6122 24.1602 22.6435C24.0688 23.7011 23.8933 24.1919 23.6844 24.4412C23.2135 25.0032 22.524 25.295 21.8251 25.2443C21.5262 25.2227 21.0798 25.0159 20.2945 24.3351C19.5305 23.6728 18.5759 22.6834 17.2558 21.3136L17.2351 21.2922C16.9501 20.9963 16.7048 20.7418 16.4862 20.5497C16.2562 20.3475 16.0047 20.1671 15.6933 20.0642C15.2425 19.9152 14.7575 19.9152 14.3067 20.0642C13.9953 20.1671 13.7438 20.3475 13.5138 20.5497C13.2952 20.7418 13.0499 20.9963 12.7649 21.2922L12.7442 21.3136C11.4241 22.6834 10.4695 23.6728 9.70551 24.3351C8.92016 25.0159 8.4738 25.2227 8.17495 25.2443C7.476 25.295 6.7865 25.0032 6.31556 24.4412C6.10667 24.1919 5.9312 23.7011 5.8398 22.6435C5.75068 21.6122 5.75 20.2098 5.75 18.2735V13.3973C5.75 11.1619 5.75148 9.55807 5.90957 8.33798C6.06522 7.13671 6.36076 6.42125 6.86634 5.89665C7.36817 5.37594 8.04667 5.07453 9.19145 4.91483C10.3607 4.75171 11.9 4.75 14.0566 4.75H15.9434C18.1 4.75 19.6393 4.75171 20.8085 4.91483C21.9533 5.07453 22.6318 5.37594 23.1337 5.89665C23.6392 6.42125 23.9348 7.13671 24.0904 8.33798C24.2485 9.55807 24.25 11.1619 24.25 13.3973Z" stroke="#0D0D0E" stroke-width="1.5"/>
</g>
<defs>
<clipPath id="clip0_1_135">
<rect width="30" height="30" fill="white"/>
</clipPath>
</defs>
</svg>
